# xmcd
#
# Track frame offsets: 
#        150
#        14495
#        31365
#        46920
#        64851
#        78899
#        95561
#        111475
#        125645
#        140659
#        155561
#
# Disc length: 2303 seconds
#
# Revision: 1
# Processed by: cddbd v1.5.2PL0 Copyright (c) Steve Scherf et al.
# Submitted via: ExactAudioCopy v1.3
#
DISCID=9808fd0b
DTITLE=Zephaniah Ohora with the 18 Wheelers - This Highway
DYEAR=2017
DGENRE=Country
TTITLE0=Way Down in My Soul
TTITLE1=I Do Believe I've Had Enough
TTITLE2=Take Your Love Out of Town
TTITLE3=This Highway
TTITLE4=Songs My Mama Sang
TTITLE5=High Class City Girl From the Country
TTITLE6=I Can't Let Go (Even Though I Set You Free)
TTITLE7=She's Leaving in the Morning
TTITLE8=He Can Have Tomorrow (I'll Take Yesterday)
TTITLE9=Zephaniah OHora with the 18 Wheelers feat. Dori Freeman - Some
TTITLE9=thin' Stupid
TTITLE10=For a Moment or Two
EXTD=
EXTT0=
EXTT1=
EXTT2=
EXTT3=
EXTT4=
EXTT5=
EXTT6=
EXTT7=
EXTT8=
EXTT9=
EXTT10=
PLAYORDER=
